<mxfile host="app.diagrams.net" agent="Mozilla/5.0 (Macintosh; Intel Mac OS X 10_15_7) AppleWebKit/537.36 (KHTML, like Gecko) Chrome/136.0.0.0 Safari/537.36 Edg/136.0.0.0" version="27.0.9">
  <diagram name="第 1 页" id="J6fKt1Wgq9IQ-0i5Z1JR">
    <mxGraphModel dx="1815" dy="1154" grid="1" gridSize="10" guides="1" tooltips="1" connect="1" arrows="1" fold="1" page="1" pageScale="1" pageWidth="827" pageHeight="1169" math="0" shadow="0">
      <root>
        <mxCell id="0" />
        <mxCell id="1" parent="0" />
        <mxCell id="k2uD15khSfJf9hs8rO5q-97" style="edgeStyle=orthogonalEdgeStyle;rounded=0;orthogonalLoop=1;jettySize=auto;html=1;exitX=0.5;exitY=1;exitDx=0;exitDy=0;" edge="1" parent="1" source="k2uD15khSfJf9hs8rO5q-5" target="k2uD15khSfJf9hs8rO5q-92">
          <mxGeometry relative="1" as="geometry" />
        </mxCell>
        <mxCell id="k2uD15khSfJf9hs8rO5q-102" style="edgeStyle=orthogonalEdgeStyle;rounded=0;orthogonalLoop=1;jettySize=auto;html=1;exitX=0.5;exitY=1;exitDx=0;exitDy=0;" edge="1" parent="1" source="k2uD15khSfJf9hs8rO5q-5" target="k2uD15khSfJf9hs8rO5q-93">
          <mxGeometry relative="1" as="geometry" />
        </mxCell>
        <mxCell id="k2uD15khSfJf9hs8rO5q-103" style="edgeStyle=orthogonalEdgeStyle;rounded=0;orthogonalLoop=1;jettySize=auto;html=1;exitX=0.5;exitY=1;exitDx=0;exitDy=0;entryX=0.5;entryY=0;entryDx=0;entryDy=0;" edge="1" parent="1" source="k2uD15khSfJf9hs8rO5q-5" target="k2uD15khSfJf9hs8rO5q-94">
          <mxGeometry relative="1" as="geometry" />
        </mxCell>
        <mxCell id="k2uD15khSfJf9hs8rO5q-106" style="edgeStyle=orthogonalEdgeStyle;rounded=0;orthogonalLoop=1;jettySize=auto;html=1;exitX=0.5;exitY=1;exitDx=0;exitDy=0;entryX=0.5;entryY=0;entryDx=0;entryDy=0;" edge="1" parent="1">
          <mxGeometry relative="1" as="geometry">
            <mxPoint x="625" y="377" as="sourcePoint" />
            <mxPoint x="795" y="432" as="targetPoint" />
            <Array as="points">
              <mxPoint x="625" y="402" />
              <mxPoint x="795" y="402" />
            </Array>
          </mxGeometry>
        </mxCell>
        <mxCell id="k2uD15khSfJf9hs8rO5q-5" value="渠道网关" style="rounded=0;whiteSpace=wrap;html=1;fillColor=#e1d5e7;strokeColor=#9673a6;fontFamily=Helvetica;labelBackgroundColor=none;fontSize=12;" vertex="1" parent="1">
          <mxGeometry x="390" y="340" width="470" height="35" as="geometry" />
        </mxCell>
        <mxCell id="k2uD15khSfJf9hs8rO5q-88" value="" style="edgeStyle=orthogonalEdgeStyle;rounded=0;orthogonalLoop=1;jettySize=auto;html=1;" edge="1" parent="1" source="k2uD15khSfJf9hs8rO5q-27" target="k2uD15khSfJf9hs8rO5q-87">
          <mxGeometry relative="1" as="geometry" />
        </mxCell>
        <mxCell id="k2uD15khSfJf9hs8rO5q-27" value="rs-web" style="rounded=0;whiteSpace=wrap;html=1;fillColor=#fff2cc;strokeColor=#d6b656;fontFamily=Helvetica;labelBackgroundColor=none;fontSize=12;" vertex="1" parent="1">
          <mxGeometry x="240" y="340" width="90" height="35" as="geometry" />
        </mxCell>
        <mxCell id="k2uD15khSfJf9hs8rO5q-42" value="WEB" style="text;html=1;align=center;verticalAlign=middle;whiteSpace=wrap;rounded=0;fontStyle=1" vertex="1" parent="1">
          <mxGeometry x="60" y="120" width="150" height="60" as="geometry" />
        </mxCell>
        <mxCell id="k2uD15khSfJf9hs8rO5q-60" value="渠道外部查询服务" style="rounded=0;whiteSpace=wrap;html=1;fillColor=#f8cecc;strokeColor=#b85450;fontFamily=Helvetica;labelBackgroundColor=none;fontSize=12;verticalAlign=top;" vertex="1" parent="1">
          <mxGeometry x="2010" y="880" width="300" height="97" as="geometry" />
        </mxCell>
        <mxCell id="k2uD15khSfJf9hs8rO5q-64" value="" style="group" vertex="1" connectable="0" parent="1">
          <mxGeometry x="2020" y="903" width="180" height="30" as="geometry" />
        </mxCell>
        <mxCell id="k2uD15khSfJf9hs8rO5q-65" value="&lt;p&gt;组与销售关系&lt;/p&gt;" style="rounded=0;whiteSpace=wrap;html=1;fillColor=#fff2cc;strokeColor=#d6b656;align=center;verticalAlign=middle;fontFamily=Helvetica;fontSize=12;fontColor=default;labelBackgroundColor=none;" vertex="1" parent="k2uD15khSfJf9hs8rO5q-64">
          <mxGeometry x="100" width="80" height="30" as="geometry" />
        </mxCell>
        <mxCell id="k2uD15khSfJf9hs8rO5q-66" value="组织架构" style="rounded=0;whiteSpace=wrap;html=1;fillColor=#fff2cc;strokeColor=#d6b656;fontFamily=Helvetica;labelBackgroundColor=none;fontSize=12;" vertex="1" parent="k2uD15khSfJf9hs8rO5q-64">
          <mxGeometry width="90" height="30" as="geometry" />
        </mxCell>
        <mxCell id="k2uD15khSfJf9hs8rO5q-67" value="" style="group" vertex="1" connectable="0" parent="1">
          <mxGeometry x="2020" y="943" width="180" height="30" as="geometry" />
        </mxCell>
        <mxCell id="k2uD15khSfJf9hs8rO5q-68" value="&lt;p&gt;销售信息&lt;/p&gt;" style="rounded=0;whiteSpace=wrap;html=1;fillColor=#fff2cc;strokeColor=#d6b656;align=center;verticalAlign=middle;fontFamily=Helvetica;fontSize=12;fontColor=default;labelBackgroundColor=none;" vertex="1" parent="k2uD15khSfJf9hs8rO5q-67">
          <mxGeometry x="100" width="80" height="30" as="geometry" />
        </mxCell>
        <mxCell id="k2uD15khSfJf9hs8rO5q-69" value="企拍信息" style="rounded=0;whiteSpace=wrap;html=1;fillColor=#fff2cc;strokeColor=#d6b656;fontFamily=Helvetica;labelBackgroundColor=none;fontSize=12;" vertex="1" parent="k2uD15khSfJf9hs8rO5q-67">
          <mxGeometry width="90" height="30" as="geometry" />
        </mxCell>
        <mxCell id="k2uD15khSfJf9hs8rO5q-70" value="等等等" style="rounded=0;whiteSpace=wrap;html=1;fillColor=#fff2cc;strokeColor=#d6b656;fontFamily=Helvetica;labelBackgroundColor=none;fontSize=12;" vertex="1" parent="1">
          <mxGeometry x="2207.5" y="901.25" width="90" height="30" as="geometry" />
        </mxCell>
        <mxCell id="k2uD15khSfJf9hs8rO5q-84" style="edgeStyle=orthogonalEdgeStyle;rounded=0;orthogonalLoop=1;jettySize=auto;html=1;" edge="1" parent="1" source="k2uD15khSfJf9hs8rO5q-83" target="k2uD15khSfJf9hs8rO5q-27">
          <mxGeometry relative="1" as="geometry" />
        </mxCell>
        <mxCell id="k2uD15khSfJf9hs8rO5q-83" value="RSM后台" style="rounded=0;whiteSpace=wrap;html=1;fillColor=#dae8fc;strokeColor=#6c8ebf;fontFamily=Helvetica;labelBackgroundColor=none;fontSize=12;" vertex="1" parent="1">
          <mxGeometry x="240" y="255" width="90" height="35" as="geometry" />
        </mxCell>
        <mxCell id="k2uD15khSfJf9hs8rO5q-90" value="" style="edgeStyle=orthogonalEdgeStyle;rounded=0;orthogonalLoop=1;jettySize=auto;html=1;" edge="1" parent="1" source="k2uD15khSfJf9hs8rO5q-87" target="k2uD15khSfJf9hs8rO5q-89">
          <mxGeometry relative="1" as="geometry" />
        </mxCell>
        <mxCell id="k2uD15khSfJf9hs8rO5q-101" style="edgeStyle=orthogonalEdgeStyle;rounded=0;orthogonalLoop=1;jettySize=auto;html=1;exitX=1;exitY=0.5;exitDx=0;exitDy=0;entryX=0;entryY=0.5;entryDx=0;entryDy=0;" edge="1" parent="1" source="k2uD15khSfJf9hs8rO5q-87" target="k2uD15khSfJf9hs8rO5q-96">
          <mxGeometry relative="1" as="geometry" />
        </mxCell>
        <mxCell id="k2uD15khSfJf9hs8rO5q-87" value="rs-api" style="rounded=0;whiteSpace=wrap;html=1;fillColor=#fff2cc;strokeColor=#d6b656;fontFamily=Helvetica;labelBackgroundColor=none;fontSize=12;" vertex="1" parent="1">
          <mxGeometry x="240" y="430" width="90" height="35" as="geometry" />
        </mxCell>
        <mxCell id="k2uD15khSfJf9hs8rO5q-89" value="rs-service" style="rounded=0;whiteSpace=wrap;html=1;fillColor=#fff2cc;strokeColor=#d6b656;fontFamily=Helvetica;labelBackgroundColor=none;fontSize=12;" vertex="1" parent="1">
          <mxGeometry x="240" y="510" width="90" height="35" as="geometry" />
        </mxCell>
        <mxCell id="k2uD15khSfJf9hs8rO5q-91" value="锐销宝后台" style="rounded=0;whiteSpace=wrap;html=1;fillColor=#dae8fc;strokeColor=#6c8ebf;fontFamily=Helvetica;labelBackgroundColor=none;fontSize=12;" vertex="1" parent="1">
          <mxGeometry x="570" y="255" width="90" height="35" as="geometry" />
        </mxCell>
        <mxCell id="k2uD15khSfJf9hs8rO5q-98" style="edgeStyle=orthogonalEdgeStyle;rounded=0;orthogonalLoop=1;jettySize=auto;html=1;entryX=0.5;entryY=0;entryDx=0;entryDy=0;" edge="1" parent="1" source="k2uD15khSfJf9hs8rO5q-92" target="k2uD15khSfJf9hs8rO5q-96">
          <mxGeometry relative="1" as="geometry" />
        </mxCell>
        <mxCell id="k2uD15khSfJf9hs8rO5q-92" value="crm-rp" style="rounded=0;whiteSpace=wrap;html=1;fillColor=#fff2cc;strokeColor=#d6b656;fontFamily=Helvetica;labelBackgroundColor=none;fontSize=12;" vertex="1" parent="1">
          <mxGeometry x="400" y="430" width="90" height="35" as="geometry" />
        </mxCell>
        <mxCell id="k2uD15khSfJf9hs8rO5q-93" value="crm-rp-pc&lt;div&gt;(新渠道-CRM-PC)&lt;/div&gt;" style="rounded=0;whiteSpace=wrap;html=1;fillColor=#fff2cc;strokeColor=#d6b656;fontFamily=Helvetica;labelBackgroundColor=none;fontSize=12;" vertex="1" parent="1">
          <mxGeometry x="500" y="430" width="110" height="35" as="geometry" />
        </mxCell>
        <mxCell id="k2uD15khSfJf9hs8rO5q-94" value="rs-java" style="rounded=0;whiteSpace=wrap;html=1;fillColor=#fff2cc;strokeColor=#d6b656;fontFamily=Helvetica;labelBackgroundColor=none;fontSize=12;" vertex="1" parent="1">
          <mxGeometry x="630" y="430" width="90" height="35" as="geometry" />
        </mxCell>
        <mxCell id="k2uD15khSfJf9hs8rO5q-96" value="rs-java" style="rounded=0;whiteSpace=wrap;html=1;fillColor=#fff2cc;strokeColor=#d6b656;fontFamily=Helvetica;labelBackgroundColor=none;fontSize=12;" vertex="1" parent="1">
          <mxGeometry x="400" y="510" width="90" height="35" as="geometry" />
        </mxCell>
        <mxCell id="k2uD15khSfJf9hs8rO5q-105" value="crm-rp-commission" style="rounded=0;whiteSpace=wrap;html=1;fillColor=#fff2cc;strokeColor=#d6b656;fontFamily=Helvetica;labelBackgroundColor=none;fontSize=12;" vertex="1" parent="1">
          <mxGeometry x="740" y="430" width="110" height="35" as="geometry" />
        </mxCell>
        <mxCell id="k2uD15khSfJf9hs8rO5q-107" style="edgeStyle=orthogonalEdgeStyle;rounded=0;orthogonalLoop=1;jettySize=auto;html=1;entryX=0.479;entryY=-0.029;entryDx=0;entryDy=0;entryPerimeter=0;" edge="1" parent="1" source="k2uD15khSfJf9hs8rO5q-91" target="k2uD15khSfJf9hs8rO5q-5">
          <mxGeometry relative="1" as="geometry" />
        </mxCell>
        <mxCell id="k2uD15khSfJf9hs8rO5q-116" style="edgeStyle=orthogonalEdgeStyle;rounded=0;orthogonalLoop=1;jettySize=auto;html=1;entryX=0.5;entryY=0;entryDx=0;entryDy=0;" edge="1" parent="1" source="k2uD15khSfJf9hs8rO5q-108" target="k2uD15khSfJf9hs8rO5q-113">
          <mxGeometry relative="1" as="geometry" />
        </mxCell>
        <mxCell id="k2uD15khSfJf9hs8rO5q-117" style="edgeStyle=orthogonalEdgeStyle;rounded=0;orthogonalLoop=1;jettySize=auto;html=1;exitX=0.5;exitY=1;exitDx=0;exitDy=0;entryX=0.5;entryY=0;entryDx=0;entryDy=0;" edge="1" parent="1" source="k2uD15khSfJf9hs8rO5q-108" target="k2uD15khSfJf9hs8rO5q-115">
          <mxGeometry relative="1" as="geometry" />
        </mxCell>
        <mxCell id="k2uD15khSfJf9hs8rO5q-108" value="中台网关" style="rounded=0;whiteSpace=wrap;html=1;fillColor=#e1d5e7;strokeColor=#9673a6;fontFamily=Helvetica;labelBackgroundColor=none;fontSize=12;" vertex="1" parent="1">
          <mxGeometry x="920" y="340" width="470" height="35" as="geometry" />
        </mxCell>
        <mxCell id="k2uD15khSfJf9hs8rO5q-110" style="edgeStyle=orthogonalEdgeStyle;rounded=0;orthogonalLoop=1;jettySize=auto;html=1;entryX=0.5;entryY=0;entryDx=0;entryDy=0;" edge="1" parent="1" source="k2uD15khSfJf9hs8rO5q-109" target="k2uD15khSfJf9hs8rO5q-108">
          <mxGeometry relative="1" as="geometry" />
        </mxCell>
        <mxCell id="k2uD15khSfJf9hs8rO5q-109" value="中台" style="rounded=0;whiteSpace=wrap;html=1;fillColor=#dae8fc;strokeColor=#6c8ebf;fontFamily=Helvetica;labelBackgroundColor=none;fontSize=12;" vertex="1" parent="1">
          <mxGeometry x="1110" y="255" width="90" height="35" as="geometry" />
        </mxCell>
        <mxCell id="k2uD15khSfJf9hs8rO5q-133" style="edgeStyle=orthogonalEdgeStyle;rounded=0;orthogonalLoop=1;jettySize=auto;html=1;entryX=0;entryY=0.75;entryDx=0;entryDy=0;" edge="1" parent="1">
          <mxGeometry relative="1" as="geometry">
            <mxPoint x="990" y="460" as="sourcePoint" />
            <mxPoint x="1110" y="661.25" as="targetPoint" />
            <Array as="points">
              <mxPoint x="990" y="661" />
            </Array>
          </mxGeometry>
        </mxCell>
        <mxCell id="k2uD15khSfJf9hs8rO5q-113" value="rs-java" style="rounded=0;whiteSpace=wrap;html=1;fillColor=#fff2cc;strokeColor=#d6b656;fontFamily=Helvetica;labelBackgroundColor=none;fontSize=12;" vertex="1" parent="1">
          <mxGeometry x="940" y="430" width="90" height="35" as="geometry" />
        </mxCell>
        <mxCell id="k2uD15khSfJf9hs8rO5q-126" style="edgeStyle=orthogonalEdgeStyle;rounded=0;orthogonalLoop=1;jettySize=auto;html=1;entryX=0.5;entryY=0;entryDx=0;entryDy=0;" edge="1" parent="1" source="k2uD15khSfJf9hs8rO5q-114" target="k2uD15khSfJf9hs8rO5q-122">
          <mxGeometry relative="1" as="geometry" />
        </mxCell>
        <mxCell id="k2uD15khSfJf9hs8rO5q-131" style="edgeStyle=orthogonalEdgeStyle;rounded=0;orthogonalLoop=1;jettySize=auto;html=1;exitX=0.5;exitY=1;exitDx=0;exitDy=0;entryX=0.5;entryY=0;entryDx=0;entryDy=0;" edge="1" parent="1" source="k2uD15khSfJf9hs8rO5q-114" target="k2uD15khSfJf9hs8rO5q-121">
          <mxGeometry relative="1" as="geometry" />
        </mxCell>
        <mxCell id="k2uD15khSfJf9hs8rO5q-132" style="edgeStyle=orthogonalEdgeStyle;rounded=0;orthogonalLoop=1;jettySize=auto;html=1;exitX=0.5;exitY=1;exitDx=0;exitDy=0;entryX=1;entryY=0.25;entryDx=0;entryDy=0;" edge="1" parent="1">
          <mxGeometry relative="1" as="geometry">
            <mxPoint x="1335" y="463" as="sourcePoint" />
            <mxPoint x="1200" y="656.75" as="targetPoint" />
            <Array as="points">
              <mxPoint x="1335" y="498" />
              <mxPoint x="1250" y="498" />
              <mxPoint x="1250" y="657" />
            </Array>
          </mxGeometry>
        </mxCell>
        <mxCell id="k2uD15khSfJf9hs8rO5q-114" value="inner-firep-web" style="rounded=0;whiteSpace=wrap;html=1;fillColor=#fff2cc;strokeColor=#d6b656;fontFamily=Helvetica;labelBackgroundColor=none;fontSize=12;" vertex="1" parent="1">
          <mxGeometry x="1290" y="430" width="90" height="35" as="geometry" />
        </mxCell>
        <mxCell id="k2uD15khSfJf9hs8rO5q-127" style="edgeStyle=orthogonalEdgeStyle;rounded=0;orthogonalLoop=1;jettySize=auto;html=1;entryX=0.5;entryY=0;entryDx=0;entryDy=0;" edge="1" parent="1" source="k2uD15khSfJf9hs8rO5q-115" target="k2uD15khSfJf9hs8rO5q-121">
          <mxGeometry relative="1" as="geometry" />
        </mxCell>
        <mxCell id="k2uD15khSfJf9hs8rO5q-115" value="crm-rp-bff" style="rounded=0;whiteSpace=wrap;html=1;fillColor=#fff2cc;strokeColor=#d6b656;fontFamily=Helvetica;labelBackgroundColor=none;fontSize=12;" vertex="1" parent="1">
          <mxGeometry x="1110" y="430" width="90" height="35" as="geometry" />
        </mxCell>
        <mxCell id="k2uD15khSfJf9hs8rO5q-118" style="edgeStyle=orthogonalEdgeStyle;rounded=0;orthogonalLoop=1;jettySize=auto;html=1;exitX=0.5;exitY=1;exitDx=0;exitDy=0;entryX=0.589;entryY=-0.114;entryDx=0;entryDy=0;entryPerimeter=0;" edge="1" parent="1" source="k2uD15khSfJf9hs8rO5q-108" target="k2uD15khSfJf9hs8rO5q-114">
          <mxGeometry relative="1" as="geometry" />
        </mxCell>
        <mxCell id="k2uD15khSfJf9hs8rO5q-119" value="ruigu-crm" style="rounded=0;whiteSpace=wrap;html=1;fillColor=#fff2cc;strokeColor=#d6b656;fontFamily=Helvetica;labelBackgroundColor=none;fontSize=12;" vertex="1" parent="1">
          <mxGeometry x="1110" y="640" width="90" height="35" as="geometry" />
        </mxCell>
        <mxCell id="k2uD15khSfJf9hs8rO5q-121" value="rs-service" style="rounded=0;whiteSpace=wrap;html=1;fillColor=#fff2cc;strokeColor=#d6b656;fontFamily=Helvetica;labelBackgroundColor=none;fontSize=12;" vertex="1" parent="1">
          <mxGeometry x="1110" y="530" width="90" height="35" as="geometry" />
        </mxCell>
        <mxCell id="k2uD15khSfJf9hs8rO5q-122" value="crm-rp" style="rounded=0;whiteSpace=wrap;html=1;fillColor=#fff2cc;strokeColor=#d6b656;fontFamily=Helvetica;labelBackgroundColor=none;fontSize=12;" vertex="1" parent="1">
          <mxGeometry x="1290" y="530" width="90" height="35" as="geometry" />
        </mxCell>
        <mxCell id="k2uD15khSfJf9hs8rO5q-135" style="edgeStyle=orthogonalEdgeStyle;rounded=0;orthogonalLoop=1;jettySize=auto;html=1;exitX=0.5;exitY=1;exitDx=0;exitDy=0;" edge="1" parent="1" source="k2uD15khSfJf9hs8rO5q-138" target="k2uD15khSfJf9hs8rO5q-150">
          <mxGeometry relative="1" as="geometry" />
        </mxCell>
        <mxCell id="k2uD15khSfJf9hs8rO5q-136" style="edgeStyle=orthogonalEdgeStyle;rounded=0;orthogonalLoop=1;jettySize=auto;html=1;exitX=0.5;exitY=1;exitDx=0;exitDy=0;entryX=0.5;entryY=0;entryDx=0;entryDy=0;" edge="1" parent="1" source="k2uD15khSfJf9hs8rO5q-138" target="k2uD15khSfJf9hs8rO5q-151">
          <mxGeometry relative="1" as="geometry" />
        </mxCell>
        <mxCell id="k2uD15khSfJf9hs8rO5q-137" style="edgeStyle=orthogonalEdgeStyle;rounded=0;orthogonalLoop=1;jettySize=auto;html=1;exitX=0.5;exitY=1;exitDx=0;exitDy=0;entryX=0.5;entryY=0;entryDx=0;entryDy=0;" edge="1" parent="1">
          <mxGeometry relative="1" as="geometry">
            <mxPoint x="635" y="982" as="sourcePoint" />
            <mxPoint x="805" y="1037" as="targetPoint" />
            <Array as="points">
              <mxPoint x="635" y="1007" />
              <mxPoint x="805" y="1007" />
            </Array>
          </mxGeometry>
        </mxCell>
        <mxCell id="k2uD15khSfJf9hs8rO5q-138" value="渠道网关" style="rounded=0;whiteSpace=wrap;html=1;fillColor=#e1d5e7;strokeColor=#9673a6;fontFamily=Helvetica;labelBackgroundColor=none;fontSize=12;" vertex="1" parent="1">
          <mxGeometry x="400" y="945" width="470" height="35" as="geometry" />
        </mxCell>
        <mxCell id="k2uD15khSfJf9hs8rO5q-147" value="锐销宝后台" style="rounded=0;whiteSpace=wrap;html=1;fillColor=#dae8fc;strokeColor=#6c8ebf;fontFamily=Helvetica;labelBackgroundColor=none;fontSize=12;" vertex="1" parent="1">
          <mxGeometry x="580" y="860" width="90" height="35" as="geometry" />
        </mxCell>
        <mxCell id="k2uD15khSfJf9hs8rO5q-148" style="edgeStyle=orthogonalEdgeStyle;rounded=0;orthogonalLoop=1;jettySize=auto;html=1;entryX=0.5;entryY=0;entryDx=0;entryDy=0;" edge="1" parent="1" target="k2uD15khSfJf9hs8rO5q-152">
          <mxGeometry relative="1" as="geometry">
            <mxPoint x="565" y="1060" as="sourcePoint" />
          </mxGeometry>
        </mxCell>
        <mxCell id="k2uD15khSfJf9hs8rO5q-150" value="crm-rp-pc&lt;div&gt;(新渠道-CRM-PC)&lt;/div&gt;" style="rounded=0;whiteSpace=wrap;html=1;fillColor=#fff2cc;strokeColor=#d6b656;fontFamily=Helvetica;labelBackgroundColor=none;fontSize=12;" vertex="1" parent="1">
          <mxGeometry x="510" y="1035" width="110" height="35" as="geometry" />
        </mxCell>
        <mxCell id="k2uD15khSfJf9hs8rO5q-151" value="rs-java" style="rounded=0;whiteSpace=wrap;html=1;fillColor=#fff2cc;strokeColor=#d6b656;fontFamily=Helvetica;labelBackgroundColor=none;fontSize=12;" vertex="1" parent="1">
          <mxGeometry x="640" y="1035" width="90" height="35" as="geometry" />
        </mxCell>
        <mxCell id="k2uD15khSfJf9hs8rO5q-152" value="rs-java" style="rounded=0;whiteSpace=wrap;html=1;fillColor=#fff2cc;strokeColor=#d6b656;fontFamily=Helvetica;labelBackgroundColor=none;fontSize=12;" vertex="1" parent="1">
          <mxGeometry x="520" y="1105" width="90" height="35" as="geometry" />
        </mxCell>
        <mxCell id="k2uD15khSfJf9hs8rO5q-153" value="crm-rp-commission" style="rounded=0;whiteSpace=wrap;html=1;fillColor=#fff2cc;strokeColor=#d6b656;fontFamily=Helvetica;labelBackgroundColor=none;fontSize=12;" vertex="1" parent="1">
          <mxGeometry x="750" y="1035" width="110" height="35" as="geometry" />
        </mxCell>
        <mxCell id="k2uD15khSfJf9hs8rO5q-154" style="edgeStyle=orthogonalEdgeStyle;rounded=0;orthogonalLoop=1;jettySize=auto;html=1;entryX=0.479;entryY=-0.029;entryDx=0;entryDy=0;entryPerimeter=0;" edge="1" parent="1" source="k2uD15khSfJf9hs8rO5q-147" target="k2uD15khSfJf9hs8rO5q-138">
          <mxGeometry relative="1" as="geometry" />
        </mxCell>
        <mxCell id="k2uD15khSfJf9hs8rO5q-155" style="edgeStyle=orthogonalEdgeStyle;rounded=0;orthogonalLoop=1;jettySize=auto;html=1;entryX=0.5;entryY=0;entryDx=0;entryDy=0;" edge="1" parent="1" source="k2uD15khSfJf9hs8rO5q-157" target="k2uD15khSfJf9hs8rO5q-161">
          <mxGeometry relative="1" as="geometry" />
        </mxCell>
        <mxCell id="k2uD15khSfJf9hs8rO5q-156" style="edgeStyle=orthogonalEdgeStyle;rounded=0;orthogonalLoop=1;jettySize=auto;html=1;exitX=0.5;exitY=1;exitDx=0;exitDy=0;entryX=0.5;entryY=0;entryDx=0;entryDy=0;" edge="1" parent="1" source="k2uD15khSfJf9hs8rO5q-157" target="k2uD15khSfJf9hs8rO5q-167">
          <mxGeometry relative="1" as="geometry" />
        </mxCell>
        <mxCell id="k2uD15khSfJf9hs8rO5q-157" value="中台网关" style="rounded=0;whiteSpace=wrap;html=1;fillColor=#e1d5e7;strokeColor=#9673a6;fontFamily=Helvetica;labelBackgroundColor=none;fontSize=12;" vertex="1" parent="1">
          <mxGeometry x="930" y="945" width="470" height="35" as="geometry" />
        </mxCell>
        <mxCell id="k2uD15khSfJf9hs8rO5q-158" style="edgeStyle=orthogonalEdgeStyle;rounded=0;orthogonalLoop=1;jettySize=auto;html=1;entryX=0.5;entryY=0;entryDx=0;entryDy=0;" edge="1" parent="1" source="k2uD15khSfJf9hs8rO5q-159" target="k2uD15khSfJf9hs8rO5q-157">
          <mxGeometry relative="1" as="geometry" />
        </mxCell>
        <mxCell id="k2uD15khSfJf9hs8rO5q-159" value="中台" style="rounded=0;whiteSpace=wrap;html=1;fillColor=#dae8fc;strokeColor=#6c8ebf;fontFamily=Helvetica;labelBackgroundColor=none;fontSize=12;" vertex="1" parent="1">
          <mxGeometry x="1120" y="860" width="90" height="35" as="geometry" />
        </mxCell>
        <mxCell id="k2uD15khSfJf9hs8rO5q-160" style="edgeStyle=orthogonalEdgeStyle;rounded=0;orthogonalLoop=1;jettySize=auto;html=1;entryX=0;entryY=0.75;entryDx=0;entryDy=0;" edge="1" parent="1">
          <mxGeometry relative="1" as="geometry">
            <mxPoint x="1000" y="1065" as="sourcePoint" />
            <mxPoint x="1120" y="1266.25" as="targetPoint" />
            <Array as="points">
              <mxPoint x="1000" y="1266" />
            </Array>
          </mxGeometry>
        </mxCell>
        <mxCell id="k2uD15khSfJf9hs8rO5q-161" value="rs-java" style="rounded=0;whiteSpace=wrap;html=1;fillColor=#fff2cc;strokeColor=#d6b656;fontFamily=Helvetica;labelBackgroundColor=none;fontSize=12;" vertex="1" parent="1">
          <mxGeometry x="950" y="1035" width="90" height="35" as="geometry" />
        </mxCell>
        <mxCell id="k2uD15khSfJf9hs8rO5q-162" style="edgeStyle=orthogonalEdgeStyle;rounded=0;orthogonalLoop=1;jettySize=auto;html=1;entryX=0.5;entryY=0;entryDx=0;entryDy=0;" edge="1" parent="1" source="k2uD15khSfJf9hs8rO5q-165" target="k2uD15khSfJf9hs8rO5q-171">
          <mxGeometry relative="1" as="geometry" />
        </mxCell>
        <mxCell id="k2uD15khSfJf9hs8rO5q-163" style="edgeStyle=orthogonalEdgeStyle;rounded=0;orthogonalLoop=1;jettySize=auto;html=1;exitX=0.5;exitY=1;exitDx=0;exitDy=0;entryX=0.5;entryY=0;entryDx=0;entryDy=0;" edge="1" parent="1" source="k2uD15khSfJf9hs8rO5q-165" target="k2uD15khSfJf9hs8rO5q-170">
          <mxGeometry relative="1" as="geometry" />
        </mxCell>
        <mxCell id="k2uD15khSfJf9hs8rO5q-164" style="edgeStyle=orthogonalEdgeStyle;rounded=0;orthogonalLoop=1;jettySize=auto;html=1;exitX=0.5;exitY=1;exitDx=0;exitDy=0;entryX=1;entryY=0.25;entryDx=0;entryDy=0;" edge="1" parent="1">
          <mxGeometry relative="1" as="geometry">
            <mxPoint x="1345" y="1068" as="sourcePoint" />
            <mxPoint x="1210" y="1261.75" as="targetPoint" />
            <Array as="points">
              <mxPoint x="1345" y="1103" />
              <mxPoint x="1260" y="1103" />
              <mxPoint x="1260" y="1262" />
            </Array>
          </mxGeometry>
        </mxCell>
        <mxCell id="k2uD15khSfJf9hs8rO5q-165" value="inner-firep-web" style="rounded=0;whiteSpace=wrap;html=1;fillColor=#fff2cc;strokeColor=#d6b656;fontFamily=Helvetica;labelBackgroundColor=none;fontSize=12;" vertex="1" parent="1">
          <mxGeometry x="1300" y="1035" width="90" height="35" as="geometry" />
        </mxCell>
        <mxCell id="k2uD15khSfJf9hs8rO5q-166" style="edgeStyle=orthogonalEdgeStyle;rounded=0;orthogonalLoop=1;jettySize=auto;html=1;entryX=0.5;entryY=0;entryDx=0;entryDy=0;" edge="1" parent="1" source="k2uD15khSfJf9hs8rO5q-167" target="k2uD15khSfJf9hs8rO5q-170">
          <mxGeometry relative="1" as="geometry" />
        </mxCell>
        <mxCell id="k2uD15khSfJf9hs8rO5q-167" value="crm-rp-bff" style="rounded=0;whiteSpace=wrap;html=1;fillColor=#fff2cc;strokeColor=#d6b656;fontFamily=Helvetica;labelBackgroundColor=none;fontSize=12;" vertex="1" parent="1">
          <mxGeometry x="1120" y="1035" width="90" height="35" as="geometry" />
        </mxCell>
        <mxCell id="k2uD15khSfJf9hs8rO5q-168" style="edgeStyle=orthogonalEdgeStyle;rounded=0;orthogonalLoop=1;jettySize=auto;html=1;exitX=0.5;exitY=1;exitDx=0;exitDy=0;entryX=0.589;entryY=-0.114;entryDx=0;entryDy=0;entryPerimeter=0;" edge="1" parent="1" source="k2uD15khSfJf9hs8rO5q-157" target="k2uD15khSfJf9hs8rO5q-165">
          <mxGeometry relative="1" as="geometry" />
        </mxCell>
        <mxCell id="k2uD15khSfJf9hs8rO5q-169" value="ruigu-crm" style="rounded=0;whiteSpace=wrap;html=1;fillColor=#fff2cc;strokeColor=#d6b656;fontFamily=Helvetica;labelBackgroundColor=none;fontSize=12;" vertex="1" parent="1">
          <mxGeometry x="1120" y="1245" width="90" height="35" as="geometry" />
        </mxCell>
        <mxCell id="k2uD15khSfJf9hs8rO5q-170" value="rs-service" style="rounded=0;whiteSpace=wrap;html=1;fillColor=#fff2cc;strokeColor=#d6b656;fontFamily=Helvetica;labelBackgroundColor=none;fontSize=12;" vertex="1" parent="1">
          <mxGeometry x="1120" y="1135" width="90" height="35" as="geometry" />
        </mxCell>
        <mxCell id="k2uD15khSfJf9hs8rO5q-171" value="crm-rp" style="rounded=0;whiteSpace=wrap;html=1;fillColor=#fff2cc;strokeColor=#d6b656;fontFamily=Helvetica;labelBackgroundColor=none;fontSize=12;" vertex="1" parent="1">
          <mxGeometry x="1300" y="1135" width="90" height="35" as="geometry" />
        </mxCell>
      </root>
    </mxGraphModel>
  </diagram>
</mxfile>
